<?xml version="1.0" encoding="UTF-8"?>
<svg xmlns="http://www.w3.org/2000/svg" version="1.1" width="1080" height="1080">
  <path d="M0 0 C1.14899586 3.44698758 0.89198608 3.93031446 -0.45263672 7.14038086 C-0.7989061 7.98086975 -1.14517548 8.82135864 -1.50193787 9.68731689 C-2.08492393 11.06219269 -2.08492393 11.06219269 -2.6796875 12.46484375 C-3.0788588 13.42839783 -3.47803009 14.3919519 -3.88929749 15.38470459 C-4.75576213 17.47497471 -5.62623839 19.56358534 -6.50021362 21.65072632 C-8.83454543 27.23153545 -11.13272554 32.82720535 -13.43359375 38.421875 C-13.90364334 39.56319382 -14.37369293 40.70451263 -14.85798645 41.88041687 C-53.01288697 123.22226935 -53.01288697 123.22226935 -53 209 C-48.66330582 217.96848885 -41.26231819 225.01535446 -31.8203125 228.3359375 C-16.93744112 231.8402147 -3.90106373 226.24549409 8.59423828 218.58032227 C17.36246495 212.99209724 25.0080743 206.09837563 32.671875 199.109375 C34.73153033 197.24324433 36.82388895 195.42930212 38.9375 193.625 C46.16119068 187.32254922 52.91296522 180.43964603 59.1328125 173.1484375 C61.02802045 170.96775889 62.97982564 168.84583082 64.9453125 166.72851562 C69.72519072 161.57643377 74.28567978 156.31266995 78.6953125 150.8359375 C81.2079458 147.74412094 83.7865464 144.71569089 86.375 141.6875 C90.62163411 136.7018067 94.70955857 131.61223489 98.73168945 126.44433594 C102.28088683 121.89102741 105.90850488 117.40699505 109.5625 112.9375 C119.05533945 101.30493829 128.66747385 89.49878922 137 77 C139.40160845 89.70545257 141.31343664 102.3465389 142.25 115.25 C142.36964111 116.88835815 142.36964111 116.88835815 142.49169922 118.55981445 C145.4744886 163.78730561 135.68153722 211.16115697 114.04492188 251.07080078 C112.91254205 253.16147026 111.80871634 255.26614718 110.703125 257.37109375 C101.073658 275.4440563 88.98085054 291.47941981 75.1875 306.58984375 C73.06733383 308.92581254 71.0030269 311.30326875 68.9375 313.6875 C65.86014566 317.15331721 62.63185938 320.23030467 59.08984375 323.21484375 C57.6764755 324.42215083 56.29371533 325.66607871 54.94140625 326.94140625 C40.90763444 340.14823137 24.67896689 350.48977791 8 360 C7.3620752 360.37318359 6.72415039 360.74636719 6.06689453 361.13085938 C-30.8894739 382.7233443 -75.52567409 392.51663023 -118.0625 392.3125 C-119.26064835 392.30976578 -119.26064835 392.30976578 -120.48300171 392.30697632 C-134.49299108 392.2535582 -148.17006634 391.35453323 -162 389 C-163.43230957 388.76651855 -163.43230957 388.76651855 -164.89355469 388.52832031 C-200.91605806 382.47421961 -236.16211257 368.07461103 -266 347 C-266.92039062 346.35417969 -267.84078125 345.70835937 -268.7890625 345.04296875 C-296.68922086 325.11989792 -326.33629179 298.06052083 -342 267 C-342 266.01 -342 265.02 -342 264 C-340.2675 263.5359375 -340.2675 263.5359375 -338.5 263.0625 C-327.97359664 259.02549639 -323.27071146 247.50064378 -318.625 238 C-317.41659 235.55849274 -316.19808399 233.12252424 -314.9765625 230.6875 C-314.18886475 229.08455078 -314.18886475 229.08455078 -313.38525391 227.44921875 C-312 225 -312 225 -310 224 C-309.55011719 225.22332031 -309.10023438 226.44664062 -308.63671875 227.70703125 C-302.13053004 244.92818028 -293.73103506 260.74575675 -282 275 C-281.51805176 275.5873291 -281.03610352 276.1746582 -280.53955078 276.77978516 C-247.80348088 316.39155189 -199.23542132 341.37249096 -148.19906616 346.80465698 C-142.5246859 347.3087121 -136.83852531 347.33318083 -131.14550781 347.31567383 C-129.00013897 347.31250021 -126.85613926 347.33616232 -124.7109375 347.36132812 C-106.36792072 347.44630155 -83.70527365 344.34118669 -70 331 C-67.66486943 327.81137201 -65.75285421 324.53804891 -64 321 C-63.67 320.34 -63.34 319.68 -63 319 C-62.960008 317.00039988 -62.95653201 314.99952758 -63 313 C-68.34386115 309.82877632 -73.54358259 309.03920706 -79.64453125 308.16796875 C-81.77517977 307.84478317 -83.90579374 307.52136975 -86.03637695 307.19775391 C-87.14389313 307.03317688 -88.2514093 306.86859985 -89.39248657 306.69903564 C-138.43032344 299.36438564 -187.69213991 286.91331216 -227 255 C-227.98355469 254.21882812 -228.96710938 253.43765625 -229.98046875 252.6328125 C-253.42613769 233.66859151 -275.58906492 208.79875625 -288 181 C-287.7818923 176.13452061 -285.08396618 172.30771223 -282.625 168.25 C-282.17656738 167.49976563 -281.72813477 166.74953125 -281.26611328 165.9765625 C-277.35880639 159.48834447 -273.26824949 153.12569258 -269.12109375 146.7890625 C-266.05600614 142.10246413 -263.04414539 137.38264351 -260.03320312 132.66113281 C-253.89285996 123.03286872 -247.7068854 113.44592728 -241.32519531 103.97607422 C-239.79865747 101.69976668 -238.28560163 99.41478701 -236.7734375 97.12890625 C-233.20446764 91.73761167 -229.61157358 86.36284423 -226 81 C-225.40074707 80.10958008 -224.80149414 79.21916016 -224.18408203 78.30175781 C-201.04315541 44.08798857 -201.04315541 44.08798857 -189 41 C-185.05540806 40.50692601 -183.5319597 40.6453602 -180.1875 42.875 C-176.73230449 46.23147564 -176.75105381 48.47782577 -176.59375 53.2109375 C-176.6632979 60.81290899 -178.63520915 66.72034781 -181.64068604 73.6413269 C-183.1778127 77.18968866 -184.62392696 80.77566719 -186.0859375 84.35546875 C-186.40110321 85.1210762 -186.71626892 85.88668365 -187.04098511 86.67549133 C-190.99676397 96.33172049 -194.57019529 106.12799997 -198.125 115.9375 C-198.46360046 116.87157684 -198.80220093 117.80565369 -199.15106201 118.76803589 C-223.01812327 175.71605281 -223.01812327 175.71605281 -218.609375 234.03515625 C-215.49918519 239.59257436 -212.41188082 243.67188742 -206.10546875 245.5703125 C-195.98281178 247.63616086 -186.93212478 244.69679595 -178.375 239.25 C-160.92340754 226.75800753 -151.00623669 208.98209559 -140 191 C-138.63468079 188.77829778 -137.26879279 186.556945 -135.90234375 184.3359375 C-133.86372688 181.0221534 -131.825266 177.70827825 -129.78857422 174.39331055 C-121.42035103 160.78235751 -112.99479927 147.20842416 -104 134 C-103.59990723 133.4121875 -103.19981445 132.824375 -102.78759766 132.21875 C-88.12695819 110.70986745 -73.01557649 89.52481647 -57 69 C-56.57686523 68.45601562 -56.15373047 67.91203125 -55.71777344 67.3515625 C-46.02305861 54.89410511 -36.12562081 42.59980494 -25.88500977 30.58618164 C-23.01917257 27.22111717 -20.2145827 23.81352447 -17.4375 20.375 C-13.51593214 15.54899847 -9.39320996 10.9682374 -5.1640625 6.41015625 C-3.30779022 4.34279164 -1.6208858 2.25355413 0 0 Z " fill="#09D88A" transform="translate(666,444)"></path>
  <path d="M0 0 C0.92881989 -0.00100708 1.85763977 -0.00201416 2.81460571 -0.00305176 C56.01814446 0.03554636 111.61692043 9.1367197 159.5625 33.25 C160.19575195 33.56453125 160.82900391 33.8790625 161.48144531 34.203125 C172.33842065 39.64555331 172.33842065 39.64555331 176.5625 44.25 C171.34022316 43.63302215 166.3351276 42.52314281 161.22729492 41.28222656 C150.29681966 38.63291552 139.34079731 36.36927558 128.25 34.5 C126.52124634 34.20270996 126.52124634 34.20270996 124.75756836 33.89941406 C105.87709449 30.8139815 87.11206319 29.87117589 68 29.9375 C66.90410553 29.93932281 65.80821106 29.94114563 64.67910767 29.94302368 C47.78056393 29.9902319 31.28476708 30.64459847 14.5625 33.25 C12.84522705 33.49943359 12.84522705 33.49943359 11.09326172 33.75390625 C-31.29840038 39.96851125 -72.43041539 53.43418544 -110.43017578 73.20947266 C-112.58064694 74.32420242 -114.74114791 75.41793999 -116.90234375 76.51171875 C-150.08117513 93.45616421 -179.63661481 115.61884318 -207.4375 140.25 C-208.14084473 140.8685083 -208.84418945 141.4870166 -209.56884766 142.12426758 C-215.94985771 147.79118376 -222.04161319 153.69917589 -228.0612793 159.7434082 C-229.6302236 161.31774155 -231.20448558 162.88661589 -232.77929688 164.45507812 C-238.20864926 169.88053318 -243.48034517 175.38476533 -248.4375 181.25 C-249.31436977 182.2597528 -250.19193079 183.2689059 -251.0703125 184.27734375 C-279.50989769 217.48657723 -302.80682471 254.24255689 -322.4375 293.25 C-323.02192871 294.39686279 -323.02192871 294.39686279 -323.61816406 295.56689453 C-362.85541485 372.98700303 -377.89511321 462.76131058 -351.29882812 627.63330078 C-337.30123984 670.15772005 -317.43480341 711.18256305 -289.75146484 746.55517578 C-287.74294291 749.14587799 -285.81583585 751.79590218 -283.875 754.4375 C-278.99847577 760.94248241 -273.7499861 767.10083795 -268.4375 773.25 C-267.51324219 774.32701172 -267.51324219 774.32701172 -266.5703125 775.42578125 C-264.87644982 777.38304362 -263.1617375 779.31944348 -261.4375 781.25 C-260.34695313 782.47976563 -260.34695313 782.47976563 -259.234375 783.734375 C-253.26146244 790.36687299 -247.05112728 796.74126274 -240.75 803.0625 C-239.95432617 803.86276611 -239.15865234 804.66303223 -238.33886719 805.48754883 C-233.5326852 810.28125111 -228.59457272 814.83810219 -223.4375 819.25 C-222.35448888 820.19940423 -221.27240966 821.14987289 -220.19140625 822.1015625 C-211.91157208 829.3229171 -203.33022346 836.06546682 -194.54589844 842.66064453 C-192.53412211 844.1771642 -190.5350154 845.70883495 -188.5390625 847.24609375 C-178.54751577 854.90070337 -168.16491835 861.89733486 -157.64355469 868.80078125 C-154.89907336 870.60370745 -152.16694059 872.42440695 -149.4375 874.25 C-153.47811424 875.59687141 -155.61991343 874.08836944 -159.25390625 872.33984375 C-159.93373566 872.02148056 -160.61356506 871.70311737 -161.31399536 871.37510681 C-163.54818147 870.32380792 -165.77437726 869.25679692 -168 868.1875 C-168.76325592 867.82408508 -169.52651184 867.46067017 -170.31289673 867.08624268 C-217.83419344 844.45172528 -262.01463172 816.18023372 -301.4375 781.25 C-302.36304688 780.43789063 -303.28859375 779.62578125 -304.2421875 778.7890625 C-311.48910981 772.29834078 -318.36257021 765.42909651 -325.25 758.5625 C-325.75031738 758.06486145 -326.25063477 757.5672229 -326.76611328 757.05450439 C-332.54253476 751.30154311 -338.18325213 745.48834834 -343.4375 739.25 C-343.97238037 738.62182373 -344.50726074 737.99364746 -345.05834961 737.34643555 C-364.29574942 714.62910544 -381.02644211 690.29450879 -395.4375 664.25 C-395.91541992 663.39132324 -396.39333984 662.53264648 -396.88574219 661.64794922 C-442.40247072 579.2107629 -455.35506319 480.87476906 -427.625 332.5390625 C-421.08481103 310.4363043 -412.87388096 289.25709972 -403.4375 268.25 C-403.06915039 267.42081055 -402.70080078 266.59162109 -402.32128906 265.73730469 C-385.3795013 227.73811438 -362.1131127 192.09800819 -335.4375 160.25 C-334.94427246 159.65767578 -334.45104492 159.06535156 -333.94287109 158.45507812 C-320.37689081 142.20307904 -305.86665439 125.87418931 -289.69140625 112.1640625 C-287.84496436 110.59602693 -286.02659956 109.00600059 -284.21484375 107.3984375 C-275.63894067 99.81957125 -266.7979576 92.70136751 -257.61572266 85.87060547 C-256.17465793 84.79844814 -254.73676885 83.72200797 -253.30224609 82.64111328 C-180.69914226 28.01022596 -90.43506515 0.06898097 0 0 Z " fill="#09D88A" transform="translate(516.4375,105.75)"></path>
  <path d="M0 0 C3.28072821 1.36035456 4.65779188 2.54506157 6.296875 5.68359375 C6.89278442 6.81269165 6.89278442 6.81269165 7.50073242 7.96459961 C7.91299072 8.78065674 8.32524902 9.59671387 8.75 10.4375 C9.18610596 11.28642822 9.62221191 12.13535645 10.0715332 13.01000977 C32.68559652 57.7143381 44.20124097 107.99259664 44.25 158 C44.25100708 158.72933746 44.25201416 159.45867493 44.25305176 160.21011353 C44.18401698 235.19305416 17.82745057 310.73742503 -25 372 C-25.43634766 372.63180176 -25.87269531 373.26360352 -26.32226562 373.91455078 C-38.4058463 391.4063105 -51.53985386 407.91712061 -65.85546875 423.63671875 C-67.22636816 425.1474549 -68.58453746 426.66990601 -69.92578125 428.20703125 C-75.08588234 434.08854453 -80.5402657 439.64674412 -86.0625 445.1875 C-86.81845459 445.94804688 -87.57440918 446.70859375 -88.35327148 447.4921875 C-92.52426964 451.65184279 -96.78274263 455.64410463 -101.24682617 459.48754883 C-103.41790277 461.36052189 -105.51878915 463.30462707 -107.625 465.25 C-113.82949166 470.8340425 -120.37941471 475.92692192 -127 481 C-127.74572266 481.57556641 -128.49144531 482.15113281 -129.25976562 482.74414062 C-146.07797996 495.69927045 -163.62855529 507.36665733 -182 518 C-182.64485352 518.37656738 -183.28970703 518.75313477 -183.95410156 519.14111328 C-242.0610811 552.9082547 -310.45103149 574.86329589 -378 576 C-378.92844727 576.02046387 -379.85689453 576.04092773 -380.81347656 576.06201172 C-463.01112694 577.69409503 -544.51191728 552.57603903 -611 504 C-612.03511719 503.24589844 -613.07023438 502.49179687 -614.13671875 501.71484375 C-617.11575239 499.50685411 -620.06333594 497.26399887 -623 495 C-623.54333984 494.58282715 -624.08667969 494.1656543 -624.64648438 493.73583984 C-646.81896581 476.67668152 -668.69003521 458.07995509 -686 436 C-686.90512749 434.89384493 -687.81282504 433.78978943 -688.72265625 432.6875 C-700.53573537 418.30129449 -710.94319185 402.9655792 -720.765625 387.16796875 C-723.21719762 383.22905669 -725.71586481 379.32210722 -728.234375 375.42578125 C-728.96891507 374.28735501 -729.70345283 373.14892727 -730.43798828 372.01049805 C-731.8699149 369.79189078 -733.30650609 367.57653513 -734.74560547 365.36254883 C-735.39932129 364.34829834 -736.05303711 363.33404785 -736.7265625 362.2890625 C-737.31002441 361.38881348 -737.89348633 360.48856445 -738.49462891 359.56103516 C-739.94371743 357.09575157 -741.01709292 354.68082023 -742 352 C-737.74437032 356.07233476 -734.07230568 360.48352127 -730.375 365.0625 C-724.48270351 372.28631046 -718.37457943 379.19557088 -712 386 C-710.97648103 387.11331296 -709.95439191 388.2279418 -708.93359375 389.34375 C-700.99328745 398.01830518 -692.94043541 406.34309244 -684 414 C-682.98113501 414.89380698 -681.96295982 415.78840063 -680.9453125 416.68359375 C-660.17881767 434.85879642 -637.20662067 450.47820936 -613.07861328 463.84765625 C-611.16856208 464.90655238 -609.26944457 465.98282938 -607.37109375 467.0625 C-536.15319825 506.53074153 -448.19913529 519.45178143 -368 508 C-366.93749023 507.85546387 -365.87498047 507.71092773 -364.78027344 507.56201172 C-323.09746247 501.80848401 -282.4178089 490.17398803 -243.92089844 473.27685547 C-241.33259539 472.14539234 -238.73608829 471.03783834 -236.1328125 469.94140625 C-224.83589389 465.13273321 -214.13176889 459.36955712 -203.43115234 453.36181641 C-201.39465464 452.22106684 -199.35111129 451.09604703 -197.30078125 449.98046875 C-173.71486843 436.92144103 -151.55626212 421.06758362 -130.98876953 403.68017578 C-129.08139152 402.06876214 -127.16466856 400.46914536 -125.24609375 398.87109375 C-117.40972512 392.29920352 -110.13279447 385.3241362 -103 378 C-100.42011209 375.40386083 -97.82390972 372.82833657 -95.203125 370.2734375 C-89.51912572 364.71373089 -84.21162808 359.05879786 -79.26171875 352.8203125 C-77.26851778 350.33483564 -75.21216285 347.9217926 -73.12011719 345.51953125 C-21.46416041 285.87402164 11.52631534 203.03692669 13 124 C13.02046387 123.0315918 13.04092773 122.06318359 13.06201172 121.06542969 C13.67625338 86.84049322 10.22030166 53.41502169 2.3671875 20.09375 C-1.55563437 3.11126873 -1.55563437 3.11126873 0 0 Z " fill="#0AD88A" transform="translate(959,403)"></path>
  <path d="M0 0 C0.94621216 0.00182281 1.89242432 0.00364563 2.86730957 0.00552368 C17.06928914 0.05154057 30.90265495 0.57308652 44.875 3.3125 C45.79474609 3.48410645 46.71449219 3.65571289 47.66210938 3.83251953 C80.29417836 10.01317038 114.99662065 21.18984234 141.875 41.3125 C140.57923453 44.11884516 139.16798167 46.32489976 137.1171875 48.6328125 C136.30894531 49.55114868 136.30894531 49.55114868 135.484375 50.48803711 C134.91203125 51.13135986 134.3396875 51.77468262 133.75 52.4375 C129.38741687 57.40553442 125.11454569 62.40568248 121.0234375 67.6015625 C118.77527735 70.43833185 116.49011002 73.24221467 114.19946289 76.04467773 C108.42888612 83.10847384 102.79541904 90.25214224 97.26171875 97.50341797 C88.99994938 108.28153611 80.60248645 118.95706334 72.20166016 129.62695312 C69.92413794 132.52058827 67.64975993 135.41669323 65.375 138.3125 C64.4583477 139.47917796 63.54168105 140.64584464 62.625 141.8125 C62.17125 142.39 61.7175 142.9675 61.25 143.5625 C53.6875 153.1875 53.6875 153.1875 46.125 162.8125 C45.67141113 163.38983887 45.21782227 163.96717773 44.75048828 164.56201172 C43.83236646 165.73044152 42.91407174 166.89873548 41.99560547 168.06689453 C39.72477631 170.95550506 37.45685054 173.84629548 35.1953125 176.7421875 C29.75490648 183.70057056 24.22845864 190.5804389 18.64111328 197.42138672 C15.31717582 201.50305169 12.06718453 205.62696145 8.875 209.8125 C4.61230079 215.40167936 0.20770146 220.86070506 -4.24047852 226.30297852 C-7.73198095 230.58049117 -11.16926239 234.89424845 -14.5625 239.25 C-19.24264316 245.25183831 -24.06952608 251.12404431 -28.92456055 256.98486328 C-33.09918118 262.03566716 -37.17288785 267.15477222 -41.19848633 272.32470703 C-45.70832629 278.0988541 -50.39862867 283.71467192 -55.125 289.3125 C-55.455 288.6525 -55.785 287.9925 -56.125 287.3125 C-55.47924805 285.55102539 -55.47924805 285.55102539 -54.38671875 283.41015625 C-53.77280273 282.19489258 -53.77280273 282.19489258 -53.14648438 280.95507812 C-52.48616211 279.67793945 -52.48616211 279.67793945 -51.8125 278.375 C-51.41482422 277.58931641 -51.01714844 276.80363281 -50.60742188 275.99414062 C-48.41589068 271.68779851 -46.17767349 267.40673838 -43.91772461 263.13598633 C-37.56253203 251.12418527 -31.3841124 239.03252996 -25.3125 226.875 C-24.83322052 225.91583679 -24.35394104 224.95667358 -23.86013794 223.96844482 C-15.99389823 208.20917003 -8.31024678 192.39623542 -1.125 176.3125 C-0.59116699 175.12124512 -0.05733398 173.92999023 0.49267578 172.70263672 C27.91767483 118.92335531 27.91767483 118.92335531 30.1875 62.125 C25.82083646 52.28441181 19.48687545 45.95725018 9.4375 41.9375 C-5.11633818 39.38419506 -17.87910184 44.57260192 -30.125 52.3125 C-33.97923577 55.11702644 -37.56371211 58.14691077 -41.125 61.3125 C-42.57519531 62.5809375 -42.57519531 62.5809375 -44.0546875 63.875 C-54.22198133 72.89271711 -63.28347687 82.84889795 -71.78515625 93.44140625 C-73.98334372 96.13868136 -76.23511362 98.77515543 -78.51489258 101.40307617 C-84.14282324 107.8921983 -89.52306308 114.5255307 -94.68359375 121.39404297 C-96.32603192 123.58006586 -97.9757187 125.76054208 -99.625 127.94140625 C-112.12064081 144.5001562 -124.19536039 161.34327666 -136.125 178.3125 C-142.19989942 186.95369356 -148.29842378 195.57410099 -154.5 204.125 C-159.106239 210.47679022 -163.63770424 216.87617678 -168.125 223.3125 C-187.08752894 250.45736412 -187.08752894 250.45736412 -196.78515625 261.61328125 C-198.30873323 263.37086338 -199.79340178 265.16319317 -201.23046875 266.9921875 C-204.2458111 270.68520473 -207.46806262 273.63563763 -212.1796875 274.8359375 C-215.05966253 275.06416194 -217.37101263 274.89148783 -219.70703125 273.09765625 C-223.6989627 268.57653504 -224.56320059 264.1527419 -224.45703125 258.2265625 C-221.79116021 234.82962377 -207.74969054 210.28475158 -193.47363281 192.04882812 C-161.08192668 152.0854705 -161.08192668 152.0854705 -148.125 104.3125 C-150.09790773 98.91296305 -152.7900178 96.0705336 -157.8515625 93.40234375 C-169.54871855 88.54734655 -183.7784519 90.63302706 -195.125 95.3125 C-196.72794922 96.15361328 -196.72794922 96.15361328 -198.36328125 97.01171875 C-199.27464844 97.44097656 -200.18601562 97.87023437 -201.125 98.3125 C-201.785 97.9825 -202.445 97.6525 -203.125 97.3125 C-198.07324915 90.97776481 -192.97380427 84.91983987 -187.125 79.3125 C-184.67491799 76.87827612 -182.24090358 74.43196376 -179.8359375 71.953125 C-173.94077288 65.9199465 -167.79435181 60.47392343 -161.125 55.3125 C-160.30370605 54.67658936 -160.30370605 54.67658936 -159.46582031 54.02783203 C-149.47820212 46.35346062 -139.02298264 39.61832633 -128.125 33.3125 C-127.44775879 32.91820801 -126.77051758 32.52391602 -126.07275391 32.11767578 C-87.99242373 10.21471422 -43.69022427 -0.17509478 0 0 Z " fill="#0AD88A" transform="translate(547.125,316.6875)"></path>
  <path d="M0 0 C0.5554248 0.42394043 1.11084961 0.84788086 1.68310547 1.28466797 C9.22664979 7.04385369 16.41428573 13.033705 23.33984375 19.5234375 C25.49920973 21.53377235 27.6878842 23.46822753 29.9375 25.375 C38.58741666 32.88486488 46.63653523 41.23473778 54 50 C54.80566406 50.928125 55.61132812 51.85625 56.44140625 52.8125 C73.46589796 72.49436795 87.87732552 93.9801818 100 117 C100.35400879 117.66950684 100.70801758 118.33901367 101.07275391 119.02880859 C123.74399464 162.23289523 135.21439937 209.59997597 135.25 258.3125 C135.25101212 259.56731171 135.25101212 259.56731171 135.25204468 260.84747314 C135.23430463 274.76197148 134.46120584 288.27926191 132 302 C131.75056641 303.43859375 131.75056641 303.43859375 131.49609375 304.90625 C122.03392238 358.1747703 97.56103362 406.27441091 65 449 C63.30872514 451.24717589 61.62308488 453.49855448 59.9375 455.75 C58.625 457.5 57.3125 459.25 56 461 C54.71711301 457.15133902 55.53274892 456.17541526 57.17578125 452.53125 C57.66908936 451.41709717 58.16239746 450.30294434 58.6706543 449.1550293 C59.07179947 448.26356705 59.07179947 448.26356705 59.48104858 447.35409546 C60.90357904 444.18192304 62.28431742 440.99174782 63.6640625 437.80078125 C63.94712753 437.14648636 64.23019257 436.49219147 64.52183533 435.81806946 C86.54537066 384.63956455 99.54290073 327.7702321 99.3125 272 C99.31067719 271.07244904 99.30885437 270.14489807 99.30697632 269.1892395 C99.16540854 226.07839195 91.22362004 184.59528359 74 145 C73.40662842 143.63149902 73.40662842 143.63149902 72.80126953 142.23535156 C62.80959809 119.52208928 49.46363847 99.33276521 34 80 C33.12860976 78.88174139 32.25747621 77.76328266 31.38671875 76.64453125 C25.10751172 68.86489177 18.03832533 61.8340723 11 54.75 C10.23647217 53.97829971 10.23647217 53.97829971 9.45751953 53.19100952 C2.64261126 46.32191669 -4.40525897 40.01532371 -12 34 C-13.24347845 32.97579634 -14.48470413 31.94884524 -15.72265625 30.91796875 C-58.23476379 -4.03170861 -109.83844739 -24.9204218 -164 -33 C-164.87414551 -33.13277344 -165.74829102 -33.26554687 -166.64892578 -33.40234375 C-254.9649214 -46.10300804 -350.31183405 -14.13098965 -423 35 C-424.26369697 35.94658355 -425.52552941 36.89566325 -426.78515625 37.84765625 C-430 40 -430 40 -434 40 C-433.48231057 29.90505621 -424.92646291 22.49478778 -418.125 15.875 C-417.36058594 15.11574219 -416.59617187 14.35648437 -415.80859375 13.57421875 C-411.02821878 8.85877248 -406.10493788 4.36046777 -401 0 C-400.04996094 -0.81984375 -399.09992188 -1.6396875 -398.12109375 -2.484375 C-310.17413834 -76.73362411 -191.33345768 -91.26296899 0 0 Z " fill="#0BD88B" transform="translate(802,239)"></path>
  <path d="M0 0 C4.6087464 3.58382636 8.10642021 7.30842483 11.5625 12 C12.07135742 12.68642578 12.58021484 13.37285156 13.10449219 14.08007812 C23.13445497 27.85676071 31.88483745 42.51708303 39 58 C39.35465332 58.77069824 39.70930664 59.54139648 40.07470703 60.33544922 C49.77705905 81.55165493 49.77705905 81.55165493 49 87 C47.56640625 89.0703125 47.56640625 89.0703125 45.5625 91.125 C42.48969192 94.39154028 39.56397264 97.69446998 36.75 101.1875 C32.29108684 106.67892307 27.70739705 112.05188133 23.0859375 117.40625 C21.08939232 119.72159231 19.11619552 122.05336594 17.1640625 124.40625 C-5.7427239 151.88334286 -5.7427239 151.88334286 -20 159 C-20.63292969 159.35191406 -21.26585937 159.70382812 -21.91796875 160.06640625 C-29.07003937 163.46707096 -38.4248508 163.27121595 -45.91015625 161.19140625 C-53.04893018 158.00268034 -58.39306431 152.72232795 -62.16015625 145.8984375 C-66.98118229 133.20680615 -65.16411186 115.18783913 -60 103 C-49.68750594 80.46971071 -36.198097 59.44176589 -22.85888672 38.61791992 C-14.77708971 25.99806092 -7.27968666 13.09655212 0 0 Z " fill="#09D88A" transform="translate(745,408)"></path>
  <path d="M0 0 C0.66 0.33 1.32 0.66 2 1 C-5.92 8.92 -13.84 16.84 -22 25 C-22.66 24.67 -23.32 24.34 -24 24 C-16 16 -8 8 0 0 Z " fill="#35DF9F" transform="translate(375,381)"></path>
  <path d="M0 0 C3.91939465 3.80411834 7.49102731 7.81576108 11 12 C10.34 13.32 9.68 14.64 9 16 C7.49445366 13.71180854 5.99542957 11.41978831 4.5 9.125 C4.07074219 8.47402344 3.64148438 7.82304688 3.19921875 7.15234375 C0 2.2265625 0 2.2265625 0 0 Z " fill="#72E8BC" transform="translate(217,755)"></path>
  <path d="M0 0 C4.43090471 1.20842856 6.98112756 2.51668565 10 6 C5.61110675 5.33501617 2.0188515 3.81242323 -2 2 C-1.34 1.34 -0.68 0.68 0 0 Z " fill="#57E4AF" transform="translate(357,975)"></path>
  <path d="M0 0 C1.2077558 3.62326739 0.54311128 4.64146369 -1 8 C-1.99 8 -2.98 8 -4 8 C-6.15028304 8.94978897 -6.15028304 8.94978897 -8 10 C-7.04367001 8.70684939 -6.08486149 7.41553147 -5.125 6.125 C-4.59132813 5.40570313 -4.05765625 4.68640625 -3.5078125 3.9453125 C-2 2 -2 2 0 0 Z " fill="#64E3AE" transform="translate(666,444)"></path>
  <path d="M0 0 C0.66 0.33 1.32 0.66 2 1 C1.52797514 5.24822374 -0.96655518 7.19989709 -4 10 C-2.8905928 6.51329166 -1.73662334 3.22515763 0 0 Z " fill="#51E0A5" transform="translate(495,596)"></path>
  <path d="M0 0 C1.9375 0.8125 1.9375 0.8125 4 2 C4.33 2.99 4.66 3.98 5 5 C4.34 5.66 3.68 6.32 3 7 C0 2.25 0 2.25 0 0 Z " fill="#4DE3AB" transform="translate(223,764)"></path>
  <path d="M0 0 C0.99 0.495 0.99 0.495 2 1 C1.67 1.66 1.34 2.32 1 3 C0.67 2.01 0.34 1.02 0 0 Z " fill="#AAF1D7" transform="translate(215,752)"></path>
  <path d="" fill="#D2F6E6" transform="translate(0,0)"></path>
  <path d="M0 0 C2 1 2 1 2 1 Z " fill="#89ECC7" transform="translate(367,981)"></path>
  <path d="" fill="#B7F4DD" transform="translate(0,0)"></path>
  <path d="" fill="#B1F3DA" transform="translate(0,0)"></path>
  <path d="" fill="#DDFAEF" transform="translate(0,0)"></path>
  <path d="" fill="#9CEBC5" transform="translate(0,0)"></path>
  <path d="" fill="#9DEECD" transform="translate(0,0)"></path>
  <path d="" fill="#CEF7E8" transform="translate(0,0)"></path>
</svg>
